<?xml version="1.0" encoding="utf-8"?>
<!-- Generator: Adobe Illustrator 26.0.3, SVG Export Plug-In . SVG Version: 6.00 Build 0)  -->
<svg version="1.1" id="Lager_1" xmlns="http://www.w3.org/2000/svg" xmlns:xlink="http://www.w3.org/1999/xlink" x="0px" y="0px"
	 viewBox="0 0 24 24" style="enable-background:new 0 0 24 24;" xml:space="preserve">
<style type="text/css">
	.st0{fill:none;}
	.st1{fill:#FFFFFF;}
	.st2{fill:none;stroke:#FFFFFF;stroke-width:1.5;stroke-linecap:square;stroke-linejoin:round;stroke-miterlimit:10;}
</style>
<path class="st0" d="M0,0h24v24H0V0z"/>
<path class="st1" d="M7,18c-1.1,0-2,0.9-2,2s0.9,2,2,2s2-0.9,2-2S8.1,18,7,18z M17,18c-1.1,0-2,0.9-2,2s0.9,2,2,2s2-0.9,2-2
	S18.1,18,17,18z M8.1,13h7.4c0.7,0,1.4-0.4,1.7-1l3.9-7l-1.7-1l-3.9,7h-7L4.3,2H1v2h2l3.6,7.6L5.2,14c-0.7,1.3,0.2,3,1.8,3h12v-2H7
	L8.1,13z"/>
<polyline class="st2" points="9.4,7.3 11.9,9.8 16.1,3.3 "/>
</svg>
