<svg id="Lager_1" data-name="Lager 1" xmlns="http://www.w3.org/2000/svg" viewBox="0 0 24 24"><defs><style>.cls-1,.cls-3{fill:none;}.cls-2{fill:#fff;}.cls-3{stroke:#fff;stroke-linecap:square;stroke-linejoin:round;stroke-width:1.5px;}</style></defs><path class="cls-1" d="M0,0H24V24H0Z"/><path class="cls-2" d="M7,18a2,2,0,1,0,2,2A2,2,0,0,0,7,18Zm10,0a2,2,0,1,0,2,2A2,2,0,0,0,17,18ZM8.1,13h7.45a2,2,0,0,0,1.75-1l3.86-7L19.42,4l-3.87,7h-7L4.27,2H1V4H3l3.6,7.59L5.25,14A2,2,0,0,0,7,17H19V15H7Z"/><polyline class="cls-3" points="9.43 7.35 11.91 9.83 16.07 3.26"/></svg>