<svg id="Lager_2" data-name="Lager 2" xmlns="http://www.w3.org/2000/svg" viewBox="0 0 360 360"><defs><style>.cls-1{fill:#6e30f2;}.cls-1,.cls-2,.cls-3{stroke:#000;stroke-miterlimit:10;}.cls-1,.cls-2{stroke-width:12px;}.cls-2{fill:#acb0f2;}.cls-3{fill:#929ad3;stroke-width:3px;}</style></defs><circle class="cls-1" cx="180" cy="180" r="172.99"/><path class="cls-2" d="M313.71,86.24c-2.39,4.26-5.35,4.48-8.82,1.27a29.81,29.81,0,0,0-2.61-2.3,1.77,1.77,0,0,0-2.65.17,1.72,1.72,0,0,0,.25,2.27c2.4,2.67,5.2,5.78,1.79,8.95-3.74,3.48-7,.1-10-2.26a5.53,5.53,0,0,0-1.68-.61c-1.26,1.91.41,2.66,1.11,3.54,1.75,2.17,2.68,4.36.51,6.63s-5.72,2.61-7.6.56c-3.61-3.93-6.57-2.13-10-.31-5.57,2.94-57.74,58.51-58.53,59.07-6.45,4.48-6.89,6.39-2.66,13.11,4.1,6.51,7.22,13.26,7.47,21.18.53,16.89-6.77,29.28-21.35,37.4-6.73,3.74-12.3,8.3-15.18,15.71a15.79,15.79,0,0,0-1.24,5.25c-.52,14.23-4.38,27.38-13.87,38.23-10.06,11.52-22.5,18.67-38.26,19.37-14.58.65-28.61-.72-40.33-10.41a254.23,254.23,0,0,1-24.91-24.22c-5.83-6.36-12.07-12.38-14.8-20.87-6-18.62-6.29-36.77,5-53.8,8.92-13.46,21-21.84,37.14-25,5.22-1,10.62-.49,15.6-2.26,7.65-2.71,13.11-7.89,17-15.15,8.61-16.07,22.45-23.57,40.55-21.7a37,37,0,0,1,18.54,7.77c5.52,4.19,10.73,2.7,13.2-3.9,1.33-3.54,58.27-56.06,61-63,.58-1.49-.68-2.46-1.57-3.41-2.43-2.59-3.32-5.48-.91-8.42,2.63-3.21,5.24-1.64,7.68.54.71.63,1.54,1.62,2.5.55s.07-1.84-.58-2.61-1.6-1.69-2.3-2.61c-1.41-1.89-2.91-3.76-.73-6.16s4.65-2.24,7.24-1.09A8.68,8.68,0,0,1,272,59.7c.88.86,1.85,1.72,3,.62s.42-2.14-.38-3.09c-.43-.51-.85-1-1.3-1.5-3.11-3.33-3-6.44.59-9.34h2c3.59,2.32,7,5,11.78,4.18,1.86-.33,3.44,1.18,4.73,2.44q8.36,8.13,16.54,16.43c1.36,1.38,3.23,3.1,2.19,5.18-1.84,3.68.51,5.53,2.62,7.64Z"/><path class="cls-3" d="M168.28,222l0,0a.44.44,0,0,1-.28.21,3.84,3.84,0,0,1-.64.45,36.66,36.66,0,0,1-50-10.24l.14-.11a42.23,42.23,0,0,0,39.23-5.18,5.73,5.73,0,0,0,1-.63,42.15,42.15,0,0,0,19.12-34.68l.14-.11A36.61,36.61,0,0,1,168.28,222Z"/></svg>