<svg id="Lager_3" data-name="Lager 3" xmlns="http://www.w3.org/2000/svg" viewBox="0 0 10.3 11.82"><defs><style>.cls-1{fill:#4b50bf;}.cls-2{fill:#acb0f2;}</style></defs><path class="cls-1" d="M7203.55,7202.62h0s0,0,0,.06a.76.76,0,0,1-.08.11,6.61,6.61,0,0,1-9.08,1.41l0,0a7.57,7.57,0,0,0,6.29-3.34,1,1,0,0,0,.13-.16,7.6,7.6,0,0,0,1.05-7.05v0A6.59,6.59,0,0,1,7203.55,7202.62Z" transform="translate(-7194.35 -7193.59)"/><path class="cls-2" d="M7199.83,7195.59a16.35,16.35,0,0,0-2.66.42.25.25,0,0,0-.21.29l.63,4s-1.36-.8-2,.32c.12,1.24,2.29.63,2.39,0a21.82,21.82,0,0,0-.39-3.4.08.08,0,0,1,.07-.09l2.39-.37S7200.08,7195.88,7199.83,7195.59Z" transform="translate(-7194.35 -7193.59)"/></svg>